#!OML:ASF E:\acrobat2\Project_11_07_03\Capture day 1\Session 1\Acrobat.ASF
:FULLY-SPECIFIED
:DEGREES
499
root 10.073 13.7301 -11.2703 193.1 -2.72978 -178.85
lowerback 16.496 0.139299 -1.33354
upperback 6.18089 -0.956635 -0.692696
thorax -2.66425 -0.857131 0.220119
lowerneck -3.17851 -3.39657 -1.99232
upperneck -4.19992 -4.53532 5.10063
head -0.597026 -2.35063 1.90029
rclavicle -7.95139e-016 -7.55382e-015
rhumerus -14.6402 26.8715 -80.0452
rradius 37.62
rwrist 5.12273
rhand -11.0372 -394.733
rfingers 7.12502
rthumb 14.9847 295.829
lclavicle -7.95139e-016 -7.55382e-015
lhumerus 28.6007 -40.9411 48.7287
lradius 28.1159
lwrist -5.01603
lhand -15.1808 -371.575
lfingers 7.12502
lthumb 10.9904 18.1176
rfemur -71.1744 -1.80771 24.9675
rtibia 89.6581
rfoot 237.054 -75.0295
rtoes 11.6929
lfemur -71.2502 2.16922 -23.5853
ltibia 88.3159
lfoot -98.1327 6.54882
ltoes 58.427
500
root 10.0606 13.9327 -11.3601 193.371 -2.83138 -178.919
lowerback 15.7735 0.0276481 -1.33477
upperback 5.81824 -0.995808 -0.604349
thorax -2.6621 -0.837192 0.312717
lowerneck -2.84708 -3.40611 -2.26725
upperneck -4.4503 -4.53418 5.39941
head -0.718456 -2.35718 2.0572
rclavicle 6.75868e-015 2.78299e-015
rhumerus -16.5342 26.1968 -81.0576
rradius 36.933
rwrist 5.5205
rhand -10.8758 -394.785
rfingers 7.12502
rthumb 15.1401 295.789
lclavicle 6.75868e-015 2.78299e-015
lhumerus 26.6374 -41.7952 50.2894
lradius 27.7067
lwrist -4.49773
lhand -15.4187 -371.896
lfingers 7.12502
lthumb 10.7609 17.8084
rfemur -69.5704 -1.79534 24.6169
rtibia 88.7948
rfoot 285.542 -68.3061
rtoes 10.7883
lfemur -69.665 2.05997 -23.5818
ltibia 89.5353
lfoot -83.7767 0.0406817
ltoes 58.5288
501
root 10.0473 14.1388 -11.4532 193.494 -2.87411 -178.853
lowerback 15.1234 -0.0561396 -1.25762
upperback 5.49806 -1.00179 -0.478818
thorax -2.65155 -0.806648 0.394209
lowerneck -2.65172 -3.38312 -2.44223
upperneck -4.55285 -4.49653 5.43936
head -0.780682 -2.33896 2.10786
rclavicle 9.93923e-016 -3.97569e-015
rhumerus -18.2863 25.5697 -81.9804
rradius 36.1249
rwrist 5.75359
rhand -11.0184 -394.901
rfingers 7.12502
rthumb 15.0027 295.663
lclavicle 9.93923e-016 -3.97569e-015
lhumerus 24.3082 -42.2301 52.4226
lradius 27.2441
lwrist -4.26512
lhand -15.5957 -372.042
lfingers 7.12502
lthumb 10.5901 17.6708
rfemur -67.712 -1.66695 24.4051
rtibia 86.8882
rfoot 304.856 -54.7545
rtoes 10.9162
lfemur -67.9488 2.10481 -23.454
ltibia 89.6242
lfoot -69.4027 -5.60884
ltoes 58.3286
502
root 10.0314 14.3524 -11.5488 193.449 -2.88423 -178.672
lowerback 14.7266 -0.132724 -1.05142
upperback 5.15056 -0.994122 -0.350077
thorax -2.80485 -0.770932 0.408152
lowerneck -2.60714 -3.27582 -2.48694
upperneck -4.47162 -4.35316 5.26695
head -0.771499 -2.26151 2.0604
rclavicle -6.16232e-015 -9.54166e-015
rhumerus -20.1461 24.9101 -82.9288
rradius 35.4278
rwrist 5.96054
rhand -10.8614 -395.028
rfingers 7.12502
rthumb 15.154 295.547
lclavicle -6.16232e-015 -9.54166e-015
lhumerus 21.7463 -42.5172 54.7595
lradius 26.7942
lwrist -4.28069
lhand -15.3446 -371.93
lfingers 7.12502
lthumb 10.8324 17.7707
rfemur -65.6187 -1.51025 24.3361
rtibia 84.1869
rfoot 314.27 -39.834
rtoes 11.3113
lfemur -66.1265 2.22781 -23.1947
ltibia 88.5939
lfoot -54.7398 -11.0372
ltoes 58.0294
503
root 10.0154 14.5714 -11.6456 193.298 -2.92294 -178.556
lowerback 14.3704 -0.209236 -0.846925
upperback 4.88848 -1.00706 -0.253182
thorax -2.88958 -0.753842 0.392781
lowerneck -2.63152 -3.16218 -2.37416
upperneck -4.44783 -4.20898 4.94804
head -0.774604 -2.18631 1.93725
rclavicle 5.76476e-015 6.75868e-015
rhumerus -21.794 24.0594 -83.7824
rradius 34.656
rwrist 6.27012
rhand -10.6722 -395.162
rfingers 7.12502
rthumb 15.3362 295.427
lclavicle 5.76476e-015 6.75868e-015
lhumerus 19.2751 -42.8092 56.9285
lradius 26.3657
lwrist -4.18677
lhand -15.277 -371.785
lfingers 7.12502
lthumb 10.8976 17.9124
rfemur -63.5105 -1.41645 24.2212
rtibia 81.2984
rfoot 320.699 -24.5671
rtoes 11.6553
lfemur -64.1587 2.29271 -22.9776
ltibia 86.5777
lfoot -39.3885 -16.4943
ltoes 57.9345
504
root 9.99725 14.7918 -11.7445 193.104 -3.0745 -178.565
lowerback 13.9072 -0.338207 -0.70477
upperback 4.72784 -1.11151 -0.166071
thorax -2.80792 -0.789246 0.413852
lowerneck -2.81193 -3.10469 -2.29483
upperneck -4.47209 -4.14202 4.69631
head -0.760923 -2.15203 1.83911
rclavicle 3.97569e-016 6.75868e-015
rhumerus -23.063 23.4225 -84.4449
rradius 33.734
rwrist 6.38524
rhand -10.4627 -395.456
rfingers 7.12502
rthumb 15.538 295.149
lclavicle 3.97569e-016 6.75868e-015
lhumerus 16.8515 -43.169 58.9765
lradius 25.9683
lwrist -3.78156
lhand -15.6815 -371.53
lfingers 7.12502
lthumb 10.5074 18.1872
rfemur -61.4905 -1.46786 23.9894
rtibia 78.8449
rfoot 326.124 -9.17891
rtoes 12.11
lfemur -62.078 2.23614 -22.8799
ltibia 83.8295
lfoot -22.9996 -20.9231
ltoes 57.9917
505
root 9.97798 15.0148 -11.8505 192.858 -3.14847 -178.582
lowerback 13.3849 -0.454044 -0.611553
upperback 4.56078 -1.20545 -0.0743248
thorax -2.69948 -0.81957 0.463439
lowerneck -2.84528 -3.12151 -2.54315
upperneck -4.54609 -4.15981 4.76156
head -0.771695 -2.15979 1.90413
rclavicle -8.34896e-015 0
rhumerus -24.3603 22.963 -85.0819
rradius 32.7936
rwrist 6.3852
rhand -9.9599 -395.879
rfingers 7.12502
rthumb 16.0223 294.764
lclavicle -8.34896e-015 0
lhumerus 14.5215 -43.7558 60.8871
lradius 25.4787
lwrist -3.08958
lhand -15.7532 -371.219
lfingers 7.12502
lthumb 10.4382 18.5021
rfemur -59.3867 -1.42922 23.7393
rtibia 76.6772
rfoot 326.812 -9.01636
rtoes 12.6834
lfemur -59.9542 2.30897 -22.8046
ltibia 80.8758
lfoot -5.85201 -23.3419
ltoes 57.971
506
root 9.96157 15.2433 -11.9556 192.562 -3.0997 -178.506
lowerback 12.9328 -0.493587 -0.413311
upperback 4.39225 -1.19194 -0.0120432
thorax -2.63326 -0.797493 0.407504
lowerneck -1.31418 -2.7149 -3.34544
upperneck -5.87421 -3.59664 5.49049
head -1.45392 -1.91111 2.34646
rclavicle -3.97569e-016 -3.97569e-015
rhumerus -25.7469 22.1219 -85.7288
rradius 31.8623
rwrist 6.53547
rhand -9.73246 -396.109
rfingers 7.12502
rthumb 16.2413 294.552
lclavicle -3.97569e-016 -3.97569e-015
lhumerus 12.1552 -43.9302 63.0102
lradius 24.8367
lwrist -3.09763
lhand -15.3829 -371.063
lfingers 7.12502
lthumb 10.7955 18.6394
rfemur -57.1315 -1.20204 23.6022
rtibia 74.27
rfoot 327.743 -9.3432
rtoes 12.0624
lfemur -57.9038 2.56528 -22.6327
ltibia 78.3512
lfoot 11.742 -23.6459
ltoes 57.9415
507
root 9.94266 15.4741 -12.0558 192.232 -3.09641 -178.539
lowerback 12.5332 -0.520622 -0.199214
upperback 4.27184 -1.17322 -0.0203954
thorax -2.54626 -0.776297 0.269053
lowerneck -0.655559 -2.56314 -3.49747
upperneck -6.41756 -3.4001 5.45298
head -1.7532 -1.82263 2.38793
rclavicle 3.37934e-015 -5.96354e-015
rhumerus -26.9018 21.0179 -86.2922
rradius 30.7033
rwrist 6.70405
rhand -10.0866 -396.063
rfingers 7.12502
rthumb 15.9003 294.57
lclavicle 3.37934e-015 -5.96354e-015
lhumerus 9.6673 -43.8117 65.2348
lradius 24.2982
lwrist -3.45009
lhand -15.2609 -371.164
lfingers 7.12502
lthumb 10.9131 18.5328
rfemur -54.7944 -1.11526 23.3613
rtibia 71.6771
rfoot 328.961 -9.88905
rtoes 10.8453
lfemur -55.8558 2.73874 -22.6043
ltibia 76.1824
lfoot 12.189 -22.5321
ltoes 57.8876
508
root 9.92318 15.7052 -12.1593 191.851 -3.06019 -178.608
lowerback 12.028 -0.545537 -0.0505056
upperback 4.25631 -1.17304 -0.0418697
thorax -2.29113 -0.769646 0.153468
lowerneck -0.464611 -2.51013 -3.29449
upperneck -6.55689 -3.347 4.97791
head -1.84317 -1.79193 2.2015
rclavicle 9.93923e-016 3.97569e-016
rhumerus -27.6643 20.0199 -86.7355
rradius 29.4124
rwrist 6.82588
rhand -9.90061 -396.273
rfingers 7.12502
rthumb 16.0794 294.375
lclavicle 9.93923e-016 3.97569e-016
lhumerus 7.40094 -44.1578 67.0324
lradius 23.9277
lwrist -2.76638
lhand -15.4581 -371.204
lfingers 7.12502
lthumb 10.7229 18.5028
rfemur -52.4137 -0.996368 23.0861
rtibia 69.1671
rfoot 330.118 -10.2673
rtoes 11.2516
lfemur -53.6842 3.00764 -22.6208
ltibia 73.9055
lfoot 12.3372 -21.5167
ltoes 57.4463
509
root 9.90667 15.949 -12.2671 191.067 -2.92783 -178.621
lowerback 12.0481 -0.529976 0.101281
upperback 4.26812 -1.1384 -0.0525394
thorax -2.29249 -0.753113 0.0524416
lowerneck -0.886116 -2.55113 -2.99045
upperneck -6.11614 -3.41645 4.35216
head -1.63499 -1.80815 1.92401
rclavicle -7.7526e-015 -3.57812e-015
rhumerus -28.4605 18.7303 -87.0368
rradius 28.2895
rwrist 7.44704
rhand -8.64375 -396.622
rfingers 7.12502
rthumb 17.2893 294.127
lclavicle -7.7526e-015 -3.57812e-015
lhumerus 5.11146 -44.4377 68.8921
lradius 23.4808
lwrist -2.08461
lhand -15.1886 -370.993
lfingers 7.12502
lthumb 10.9828 18.6998
rfemur -49.5605 -0.719797 22.9262
rtibia 66.6781
rfoot 331.336 -10.6767
rtoes 12.7762
lfemur -50.9963 3.51466 -22.5198
ltibia 71.4957
lfoot 12.4658 -20.3403
ltoes 56.8593
510
root 9.88541 16.1896 -12.3726 190.359 -2.95396 -178.788
lowerback 12.1226 -0.574016 0.257007
upperback 4.19211 -1.17298 -0.113051
thorax -2.41603 -0.766303 -0.0909912
lowerneck -1.79851 -2.69066 -2.7847
upperneck -5.22763 -3.60339 3.88296
head -1.19612 -1.8781 1.69997
rclavicle -4.37326e-015 -1.98785e-015
rhumerus -29.3735 17.0576 -87.2083
rradius 27.2238
rwrist 8.40393
rhand -7.64218 -396.641
rfingers 7.12502
rthumb 18.2531 294.196
lclavicle -4.37326e-015 -1.98785e-015
lhumerus 2.77231 -44.1879 70.9113
lradius 22.9563
lwrist -2.47569
lhand -14.1943 -370.687
lfingers 7.12502
lthumb 11.9418 18.9522
rfemur -46.9243 -0.701174 22.618
rtibia 64.3018
rfoot 332.778 -11.1731
rtoes 14.43
lfemur -48.5437 3.74508 -22.5678
ltibia 69.2545
lfoot 13.1567 -18.5589
ltoes 56.7824
511
root 9.86421 16.4249 -12.4755 189.747 -3.02539 -178.904
lowerback 12.0272 -0.63887 0.443109
upperback 4.15981 -1.23235 -0.155886
thorax -2.40231 -0.792253 -0.23341
lowerneck -2.35988 -2.75624 -2.72114
upperneck -4.68305 -3.68879 3.62308
head -0.931571 -1.90764 1.58466
rclavicle 1.53064e-014 2.98177e-015
rhumerus -30.2758 15.5121 -87.3315
rradius 26.3376
rwrist 9.00147
rhand -7.13919 -396.626
rfingers 7.12502
rthumb 18.7369 294.256
lclavicle 1.53064e-014 2.98177e-015
lhumerus 0.597532 -43.9512 72.7179
lradius 22.5045
lwrist -2.81128
lhand -13.4514 -370.365
lfingers 7.12502
lthumb 12.658 19.2313
rfemur -44.5579 -0.680548 22.3913
rtibia 62.0033
rfoot 334.452 -12.0356
rtoes 15.3789
lfemur -46.3138 3.85889 -22.4908
ltibia 67.108
lfoot 14.0943 -16.533
ltoes 56.8872
512
root 9.84809 16.6555 -12.5696 189.248 -2.98971 -178.784
lowerback 11.8894 -0.661034 0.775205
upperback 4.06572 -1.20838 -0.140727
thorax -2.43046 -0.773253 -0.409474
lowerneck -2.34149 -2.75316 -2.57683
upperneck -4.59812 -3.69425 3.23252
head -0.916854 -1.90587 1.43437
rclavicle -2.68359e-015 3.97569e-016
rhumerus -31.2538 14.2013 -87.4514
rradius 25.6044
rwrist 9.17355
rhand -6.6321 -396.703
rfingers 7.12502
rthumb 19.2246 294.228
lclavicle -2.68359e-015 3.97569e-016
lhumerus -1.65639 -43.6545 74.5493
lradius 22.0997
lwrist -2.8677
lhand -13.2471 -370.074
lfingers 7.12502
lthumb 12.855 19.5099
rfemur -42.5205 -0.389279 22.4987
rtibia 59.8451
rfoot 336.18 -13.2287
rtoes 16.155
lfemur -44.3714 4.13637 -22.0906
ltibia 65.0774
lfoot 14.8216 -14.735
ltoes 56.4738
